<?xml version="1.0" encoding="utf-8"?>
<!-- Generator: Adobe Illustrator 22.0.1, SVG Export Plug-In . SVG Version: 6.00 Build 0)  -->
<svg version="1.1" id="Layer_1" xmlns="http://www.w3.org/2000/svg" xmlns:xlink="http://www.w3.org/1999/xlink" x="0px" y="0px"
	 viewBox="0 0 25 25" style="enable-background:new 0 0 25 25;" xml:space="preserve">
<title>hamburgerArtboard 1</title>
<g>
	<path d="M2.4,5.4h20.1c0.8-0.1,1.4-0.7,1.3-1.4c0.1-0.7-0.5-1.3-1.3-1.4H2.4C1.6,2.7,1.1,3.4,1.1,4.1C1.1,4.7,1.6,5.3,2.4,5.4z"/>
	<path d="M22.6,11.2H2.4c-0.8,0.1-1.4,0.7-1.3,1.4C1,13.3,1.6,13.9,2.4,14h20.1c0.8-0.1,1.4-0.7,1.3-1.4
		C23.9,11.7,23.3,11.2,22.6,11.2z"/>
	<path d="M22.6,19.6H2.4C1.6,19.7,1,20.3,1.1,21c-0.1,0.7,0.5,1.3,1.3,1.4h20.1c0.8-0.1,1.4-0.7,1.3-1.4c0.2-0.6-0.3-1.3-1-1.4
		C22.7,19.6,22.6,19.6,22.6,19.6z"/>
</g>
</svg>
